<svg preserveAspectRatio="none" width="100%" height="100%" overflow="visible" style="display: block;" viewBox="0 0 14 14" fill="none" xmlns="http://www.w3.org/2000/svg">
<g id="Ellipse 3">
<mask id="path-1-inside-1_71_1686" fill="white">
<path d="M14 7C14 10.866 10.866 14 7 14C3.13401 14 0 10.866 0 7C0 3.13401 3.13401 0 7 0C10.866 0 14 3.13401 14 7Z"/>
</mask>
<g clip-path="url(#paint0_angular_71_1686_clip_path)" data-figma-skip-parse="true" mask="url(#path-1-inside-1_71_1686)"><g transform="matrix(0 0.007 -0.007 0 7 7)"><foreignObject x="-1285.71" y="-1285.71" width="2571.43" height="2571.43"><div xmlns="http://www.w3.org/1999/xhtml" style="background:conic-gradient(from 90deg,rgba(255, 255, 255, 1) 0deg,rgba(255, 255, 255, 0) 360deg);height:100%;width:100%;opacity:1"></div></foreignObject></g></g><path d="M14 7H12C12 9.76142 9.76142 12 7 12V14V16C11.9706 16 16 11.9706 16 7H14ZM7 14V12C4.23858 12 2 9.76142 2 7H0H-2C-2 11.9706 2.02944 16 7 16V14ZM0 7H2C2 4.23858 4.23858 2 7 2V0V-2C2.02944 -2 -2 2.02944 -2 7H0ZM7 0V2C9.76142 2 12 4.23858 12 7H14H16C16 2.02944 11.9706 -2 7 -2V0Z" data-figma-gradient-fill="{&#34;type&#34;:&#34;GRADIENT_ANGULAR&#34;,&#34;stops&#34;:[{&#34;color&#34;:{&#34;r&#34;:1.0,&#34;g&#34;:1.0,&#34;b&#34;:1.0,&#34;a&#34;:1.0},&#34;position&#34;:0.0},{&#34;color&#34;:{&#34;r&#34;:1.0,&#34;g&#34;:1.0,&#34;b&#34;:1.0,&#34;a&#34;:0.0},&#34;position&#34;:1.0}],&#34;stopsVar&#34;:[{&#34;color&#34;:{&#34;r&#34;:1.0,&#34;g&#34;:1.0,&#34;b&#34;:1.0,&#34;a&#34;:1.0},&#34;position&#34;:0.0},{&#34;color&#34;:{&#34;r&#34;:1.0,&#34;g&#34;:1.0,&#34;b&#34;:1.0,&#34;a&#34;:0.0},&#34;position&#34;:1.0}],&#34;transform&#34;:{&#34;m00&#34;:8.5725266446071949e-16,&#34;m01&#34;:-13.999998092651367,&#34;m02&#34;:13.999998092651367,&#34;m10&#34;:13.999998092651367,&#34;m11&#34;:8.5725266446071949e-16,&#34;m12&#34;:-8.5725266446071949e-16},&#34;opacity&#34;:1.0,&#34;blendMode&#34;:&#34;NORMAL&#34;,&#34;visible&#34;:true}" mask="url(#path-1-inside-1_71_1686)"/>
</g>
<defs>
<clipPath id="paint0_angular_71_1686_clip_path"><path d="M14 7H12C12 9.76142 9.76142 12 7 12V14V16C11.9706 16 16 11.9706 16 7H14ZM7 14V12C4.23858 12 2 9.76142 2 7H0H-2C-2 11.9706 2.02944 16 7 16V14ZM0 7H2C2 4.23858 4.23858 2 7 2V0V-2C2.02944 -2 -2 2.02944 -2 7H0ZM7 0V2C9.76142 2 12 4.23858 12 7H14H16C16 2.02944 11.9706 -2 7 -2V0Z" mask="url(#path-1-inside-1_71_1686)"/></clipPath></defs>
</svg>
