<svg width="21" height="21" viewBox="0 0 20.2683 20.9912" fill="none" xmlns="http://www.w3.org/2000/svg">
<g id="Group">
<path id="Vector" opacity="0.987" fill-rule="evenodd" clip-rule="evenodd" d="M8.93888 0.091125C10.0264 -0.030375 10.6699 -0.030375 11.8384 0.091125C13.9068 0.397268 15.8242 1.35335 17.3134 2.82113C16.3071 3.77233 15.314 4.73742 14.3344 5.71612C12.4584 4.12612 10.3644 3.75913 8.05238 4.61513C6.35638 5.39513 5.17538 6.65913 4.50938 8.40713C3.42104 7.59687 2.34688 6.76774 1.28738 5.92012C1.21375 5.88137 1.12965 5.86718 1.04738 5.87962C2.73038 2.63462 5.36038 0.704625 8.93738 0.0896249" fill="var(--fill-0, #F44336)"/>
<path id="Vector_2" opacity="0.997" fill-rule="evenodd" clip-rule="evenodd" d="M1.04438 5.87963C1.12938 5.86663 1.20988 5.88013 1.28588 5.92013C2.34538 6.76774 3.41954 7.59687 4.50788 8.40713C4.33662 9.08821 4.22866 9.78367 4.18538 10.4846C4.22238 11.1626 4.32988 11.8281 4.50788 12.4811L1.12538 15.1736C-0.347622 12.0956 -0.374622 8.99763 1.04438 5.87963Z" fill="var(--fill-0, #FFC107)"/>
<path id="Vector_3" opacity="0.999" fill-rule="evenodd" clip-rule="evenodd" d="M17.1529 18.4346C16.0997 17.5058 14.9971 16.6345 13.8499 15.8246C14.9999 15.0126 15.6979 13.8986 15.9439 12.4826H10.3084V8.56912C13.5584 8.54212 16.8069 8.56963 20.0539 8.65163C20.6699 11.9966 19.9584 15.0126 17.9194 17.6996C17.6769 17.9574 17.4201 18.2027 17.1529 18.4346Z" fill="var(--fill-0, #448AFF)"/>
<path id="Vector_4" opacity="0.993" fill-rule="evenodd" clip-rule="evenodd" d="M4.50788 12.4826C5.73788 15.5396 7.99288 16.9666 11.2729 16.7636C12.1936 16.657 13.0764 16.3354 13.8499 15.8246C14.9979 16.6366 16.0989 17.5066 17.1529 18.4346C15.4829 19.9353 13.3535 20.8257 11.1124 20.9606C10.6032 21.0013 10.0916 21.0013 9.58238 20.9606C5.76438 20.5106 2.94538 18.5816 1.12538 15.1736L4.50788 12.4826Z" fill="var(--fill-0, #43A047)"/>
</g>
</svg>
